<svg width="513" height="513" viewBox="0 0 513 513" fill="none" xmlns="http://www.w3.org/2000/svg">
<path d="M404.5 0.5H108.5C48.8532 0.5 0.5 48.8532 0.5 108.5V404.5C0.5 464.147 48.8532 512.5 108.5 512.5H404.5C464.147 512.5 512.5 464.147 512.5 404.5V108.5C512.5 48.8532 464.147 0.5 404.5 0.5Z" fill="#C6C6C6"/>
<path d="M404.5 0.5H108.5C48.8532 0.5 0.5 48.8532 0.5 108.5V404.5C0.5 464.147 48.8532 512.5 108.5 512.5H404.5C464.147 512.5 512.5 464.147 512.5 404.5V108.5C512.5 48.8532 464.147 0.5 404.5 0.5Z" stroke="white" stroke-opacity="0.06"/>
<path d="M128.5 178.762C128.5 174.07 131.029 169.741 135.117 167.437L184.821 139.424C193.487 134.54 204.204 140.802 204.204 150.749V334.238C204.204 338.93 201.675 343.259 197.587 345.563L147.883 373.576C139.217 378.46 128.5 372.198 128.5 362.251V178.762Z" fill="#151519"/>
<path d="M218.15 178.811C218.15 174.092 220.707 169.744 224.83 167.451L275.531 139.247C284.196 134.427 294.85 140.692 294.85 150.608V334.189C294.85 338.908 292.293 343.256 288.17 345.549L237.47 373.753C228.804 378.573 218.15 372.308 218.15 362.392V178.811Z" fill="#151519"/>
<path d="M308.796 178.762C308.796 174.07 311.325 169.741 315.413 167.437L365.117 139.424C373.783 134.54 384.5 140.802 384.5 150.749V334.238C384.5 338.93 381.971 343.259 377.883 345.563L328.179 373.576C319.513 378.46 308.796 372.198 308.796 362.251V178.762Z" fill="#151519"/>
</svg>
